<?xml version="1.0" encoding="UTF-8" standalone="no"?>
<!-- Created with Inkscape (http://www.inkscape.org/) -->

<svg
   xmlns:dc="http://purl.org/dc/elements/1.1/"
   xmlns:cc="http://creativecommons.org/ns#"
   xmlns:rdf="http://www.w3.org/1999/02/22-rdf-syntax-ns#"
   xmlns:svg="http://www.w3.org/2000/svg"
   xmlns="http://www.w3.org/2000/svg"
   xmlns:sodipodi="http://sodipodi.sourceforge.net/DTD/sodipodi-0.dtd"
   xmlns:inkscape="http://www.inkscape.org/namespaces/inkscape"
   width="1600px"
   height="900px"
   viewBox="0 0 1600 900"
   version="1.1"
   id="SVGRoot"
   inkscape:version="0.92.2 (5c3e80d, 2017-08-06)"
   sodipodi:docname="LC_layout.svg">
  <sodipodi:namedview
     id="base"
     pagecolor="#ffffff"
     bordercolor="#666666"
     borderopacity="1.0"
     inkscape:pageopacity="0.0"
     inkscape:pageshadow="2"
     inkscape:zoom="0.7"
     inkscape:cx="907.76076"
     inkscape:cy="458.61054"
     inkscape:document-units="px"
     inkscape:current-layer="layer1"
     showgrid="false"
     inkscape:window-width="1600"
     inkscape:window-height="837"
     inkscape:window-x="-8"
     inkscape:window-y="-8"
     inkscape:window-maximized="1"
     inkscape:snap-text-baseline="true" />
  <defs
     id="defs4654" />
  <metadata
     id="metadata4657">
    <rdf:RDF>
      <cc:Work
         rdf:about="">
        <dc:format>image/svg+xml</dc:format>
        <dc:type
           rdf:resource="http://purl.org/dc/dcmitype/StillImage" />
        <dc:title></dc:title>
      </cc:Work>
    </rdf:RDF>
  </metadata>
  <g
     id="layer1"
     inkscape:groupmode="layer"
     inkscape:label="Layer 1">
    <rect
       style="fill:#d5d5ff;fill-rule:evenodd;stroke-width:1"
       id="rect4680"
       width="320"
       height="894.28577"
       x="2.8571429"
       y="1.428571" />
    <rect
       style="fill:#454ade;fill-rule:evenodd;fill-opacity:1"
       id="rect5227"
       width="2.8571429"
       height="7.1428571"
       x="1335.7142"
       y="338.57144" />
    <text
       xml:space="preserve"
       style="font-style:normal;font-weight:normal;font-size:40px;line-height:1.25;font-family:sans-serif;letter-spacing:0px;word-spacing:0px;fill:#000000;fill-opacity:1;stroke:none"
       x="827.42859"
       y="452.85715"
       id="text5236"><tspan
         sodipodi:role="line"
         id="tspan5234"
         x="827.42859"
         y="452.85715">EDITOR</tspan><tspan
         sodipodi:role="line"
         x="827.42859"
         y="502.85715"
         id="tspan5238" /></text>
    <flowRoot
       xml:space="preserve"
       id="flowRoot5240"
       style="font-style:normal;font-weight:normal;font-size:40px;line-height:1.25;font-family:sans-serif;letter-spacing:0px;word-spacing:0px;fill:#000000;fill-opacity:1;stroke:none"><flowRegion
         id="flowRegion5242"><rect
           id="rect5244"
           width="275.71429"
           height="137.14285"
           x="820"
           y="500" /></flowRegion><flowPara
         id="flowPara5246">Canvas</flowPara><flowPara
         id="flowPara5248" /></flowRoot>    <flowRoot
       xml:space="preserve"
       id="flowRoot5260"
       style="font-style:normal;font-weight:normal;font-size:40px;line-height:1.25;font-family:sans-serif;letter-spacing:0px;word-spacing:0px;fill:#000000;fill-opacity:1;stroke:none"><flowRegion
         id="flowRegion5262"><rect
           id="rect5264"
           width="318.57144"
           height="175.71428"
           x="2.8571429"
           y="1.428571" /></flowRegion><flowPara
         id="flowPara5266">                              </flowPara></flowRoot>    <rect
       style="fill:#ff6600;fill-rule:evenodd;stroke-width:1"
       id="rect5272"
       width="322"
       height="182.85715"
       x="0.85714287"
       y="1.428571" />
    <flowRoot
       xml:space="preserve"
       id="flowRoot5274"
       style="font-style:normal;font-weight:normal;font-size:40px;line-height:1.25;font-family:sans-serif;letter-spacing:0px;word-spacing:0px;fill:#000000;fill-opacity:1;stroke:none"><flowRegion
         id="flowRegion5276"><rect
           id="rect5278"
           width="191.42857"
           height="62.857143"
           x="81.428574"
           y="67.14286" /></flowRegion><flowPara
         id="flowPara5280">   Logo</flowPara><flowPara
         id="flowPara5282" /></flowRoot>    <rect
       style="fill:#0066ff;fill-rule:evenodd;stroke-width:1"
       id="rect5284"
       width="320"
       height="81.428566"
       x="0.85714287"
       y="184.28572" />
    <rect
       style="fill:#0066ff;fill-rule:evenodd"
       id="rect5286"
       width="320"
       height="94.285706"
       x="0.85714293"
       y="265.71429" />
    <text
       xml:space="preserve"
       style="font-style:normal;font-weight:normal;font-size:40px;line-height:1.25;font-family:sans-serif;letter-spacing:0px;word-spacing:0px;fill:#000000;fill-opacity:1;stroke:none"
       x="61.42857"
       y="230"
       id="text5293"><tspan
         sodipodi:role="line"
         id="tspan5291"
         x="61.42857"
         y="230">Home</tspan></text>
    <text
       xml:space="preserve"
       style="font-style:normal;font-weight:normal;font-size:40px;line-height:1.25;font-family:sans-serif;letter-spacing:0px;word-spacing:0px;fill:#000000;fill-opacity:1;stroke:none"
       x="44"
       y="328.57144"
       id="text5297"><tspan
         sodipodi:role="line"
         id="tspan5295"
         x="44"
         y="328.57144">Calculators</tspan></text>
    <text
       xml:space="preserve"
       style="font-style:normal;font-weight:normal;font-size:40px;line-height:1.25;font-family:sans-serif;letter-spacing:0px;word-spacing:0px;fill:#000000;fill-opacity:1;stroke:none"
       x="80"
       y="328.57144"
       id="text5301"><tspan
         sodipodi:role="line"
         id="tspan5299"
         x="80"
         y="328.57144"> </tspan></text>
    <flowRoot
       xml:space="preserve"
       id="flowRoot5303"
       style="font-style:normal;font-weight:normal;font-size:40px;line-height:1.25;font-family:sans-serif;letter-spacing:0px;word-spacing:0px;fill:#000000;fill-opacity:1;stroke:none"
       transform="translate(46,52)"><flowRegion
         id="flowRegion5305"><rect
           id="rect5307"
           width="267.14285"
           height="308.57144"
           x="42.857143"
           y="475.71429" /></flowRegion><flowPara
         id="flowPara5309">Tools </flowPara><flowPara
         id="flowPara5311"> </flowPara></flowRoot>    <rect
       style="fill:#0066ff;fill-rule:evenodd;stroke-width:1"
       id="rect5324"
       width="320"
       height="78.571419"
       x="0.85714293"
       y="360" />
    <path
       style="opacity:0;fill:#0066ff;fill-opacity:0.08542714;stroke:#5fd3bc"
       id="path5326"
       d="m 11.294217,264.92015 c 4.478701,-0.48552 8.968584,-0.80457 13.468803,-0.98964 4.474182,-0.37762 8.886599,0.10888 13.32392,0.6071 3.465451,0.36947 6.81827,1.33812 10.280365,1.77716 2.839924,0.30229 5.699142,0.31422 8.551756,0.32922 2.847032,0.005 5.694064,-0.005 8.541091,-0.01 2.856644,-0.004 5.713292,-0.005 8.569939,-0.006 3.24415,0.0192 6.488388,0.0103 9.73257,0.006 2.948222,-0.004 5.896445,-0.005 8.844669,-0.006 2.856855,-5.6e-4 5.713711,-4.9e-4 8.57057,-4.8e-4 3.13784,7.6e-4 6.27561,0.0128 9.41346,0.0104 2.60562,-0.63735 5.23547,-1.06032 7.90776,-1.27132 2.92245,-0.18788 5.85212,-0.16601 8.77886,-0.167 3.1699,-10e-4 6.33979,-8.7e-4 9.50968,-7.2e-4 3.28066,0.0194 6.5614,0.0107 9.84209,0.007 3.49721,7e-4 6.99437,0.0178 10.4916,0.0139 3.52112,-0.009 7.04221,-10e-4 10.56334,-0.007 3.34803,-0.008 6.69602,0.003 10.04406,-0.002 3.46172,-0.0118 6.9234,0.01 10.38511,0.0114 3.6279,-0.009 7.25577,-0.0101 10.88365,10e-4 3.79828,-2.5e-4 7.59652,0.002 11.3948,-0.007 3.66926,-0.006 7.3385,0.01 11.00778,0.004 3.24389,-0.008 6.48779,-0.0149 9.73169,-0.0186 2.9611,-0.13716 5.82491,-0.004 8.72887,0.54618 2.92409,0.58547 5.9015,0.73643 8.87374,0.83375 4.082,-0.15376 8.09103,0.35711 12.13156,0.83369 3.39912,0.41109 6.81974,0.55736 10.24025,0.62505 3.27362,0.0553 6.54791,0.0387 9.82183,0.0306 2.94153,-0.008 5.88306,-0.0119 8.8246,-0.0138 2.88397,0.0899 5.79429,-0.24732 8.64088,0.27266 2.98677,0.67082 6.02832,0.91866 9.07788,1.05947 4.0628,-0.12097 8.04922,0.39667 12.06879,0.88383 3.36556,0.41583 6.75369,0.55837 10.14129,0.62505 2.8851,0.0383 5.77056,0.0275 8.65583,0.0235 0.89828,-0.075 2.08459,-0.0269 2.63988,0.85559 4.81534,7.65327 -11.86054,10.48813 -19.06461,13.57829 -2.51922,0.79015 -5.18303,0.78074 -7.79575,0.84375 -3.54023,0.034 -7.08064,0.0348 -10.621,0.034 -4.23646,-0.0331 -8.47303,-0.0319 -12.70953,-0.0571 -6.73626,-0.03 -13.47253,-0.0554 -20.20885,-0.0695 -8.51554,-0.0567 -17.01449,-0.74377 -25.52409,-1.07669 -6.69354,-0.24333 -13.39173,-0.28781 -20.08892,-0.30789 -4.76062,0.0145 -9.52125,0.024 -14.28187,0.0386 -3.45605,0.0151 -6.9121,0.0279 -10.36818,0.0345 -2.92275,-0.28503 -5.69592,0.30559 -8.54922,0.79316 -2.8557,0.4589 -5.74935,0.55682 -8.63552,0.61984 -3.33432,0.0387 -6.66911,0.0143 -10.0036,0.009 -4.2364,0.12032 -8.42861,-0.0503 -12.6355,-0.52477 -5.81921,-0.67308 -11.68006,-0.80659 -17.5312,-0.91565 -7.03308,-0.12016 -14.06719,-0.0904 -21.10083,-0.0668 -5.01988,0.026 -10.03974,0.0353 -15.05966,0.0482 -4.38191,0.006 -8.763837,10e-4 -13.145751,0.008 -4.531013,-0.0154 -9.062067,0.005 -13.593052,-0.0143 -5.217679,-0.0101 -10.435359,-10e-4 -15.653031,-0.0211 -6.283659,-0.4113 -12.449377,-1.86693 -18.582091,-3.23029 -6.385724,-1.56313 -12.874684,-2.51688 -19.342269,-3.63912 -5.204843,-0.89811 -10.332459,-2.09226 -15.588519,-2.68399 -1.9321281,-0.20357 -3.872963,-0.28145 -5.8131729,-0.35378 0,0 17.1622719,-12.33454 17.1622719,-12.33454 v 0 c 1.950094,0.12827 3.9003,0.26533 5.837983,0.52971 5.219518,0.73688 10.333822,1.98461 15.534584,2.82927 6.486028,1.07495 12.933695,2.28771 19.346438,3.74719 6.072448,1.25907 12.172487,2.7148 18.402298,2.81519 5.237001,-0.0199 10.474011,-0.011 15.711019,-0.021 4.544062,-0.0188 9.088202,10e-4 13.632292,-0.0143 4.37592,0.007 8.75185,0.002 13.12777,0.004 4.98386,0.008 9.96768,0.009 14.95152,0.0321 7.02397,0.0266 14.04819,0.055 21.07173,0.13816 5.93669,0.12285 11.88106,0.25071 17.7849,0.9459 4.18711,0.38427 8.3734,0.33716 12.5752,0.30457 3.33946,-0.002 6.67984,6.7e-4 10.018,-0.10377 2.83527,-0.11814 5.66873,-0.32406 8.46235,-0.84893 2.9052,-0.48406 5.80399,-0.61792 8.74987,-0.50168 3.42886,0.005 6.85771,0.0144 10.28657,0.0234 4.7249,0.007 9.44987,0.003 14.17457,0.0556 6.6665,0.053 13.33335,0.15987 19.99351,0.47355 8.49172,0.39966 16.9807,1.07115 25.48634,0.99363 6.79877,-0.014 13.59749,-0.04 20.39622,-0.0654 4.27691,-0.0208 8.55387,-0.0133 12.83081,-0.0281 3.52372,0.0106 7.0499,0.0404 10.57115,-0.11448 2.51658,-0.15654 5.08791,-0.34097 7.33065,-1.61123 7.19116,-4.14561 -8.97597,5.1581 -16.21518,10.35713 -1.21768,0.87451 2.20736,0.98321 -0.0525,0.96714 -0.35348,-0.003 -0.7069,-0.0104 -1.06035,-0.0155 -2.89356,9e-5 -5.7878,0.004 -8.68035,-0.0833 -3.40664,-0.12985 -6.80718,-0.37586 -10.18747,-0.83109 -3.99519,-0.48668 -7.98477,-0.71551 -12.01045,-0.75049 -3.09784,-0.18763 -6.1533,-0.6157 -9.21206,-1.13455 -2.82828,-0.14143 -5.66228,-0.0346 -8.49324,-0.0664 -2.93601,10e-4 -5.87203,0.003 -8.80805,0.002 -3.2879,-0.004 -6.57618,-0.006 -9.86345,-0.078 -3.43652,-0.13126 -6.8666,-0.38047 -10.27792,-0.82777 -4.02239,-0.47427 -8.0374,-0.69834 -12.08997,-0.66522 -3.0396,-0.14965 -6.06387,-0.43535 -9.05398,-1.02505 -2.82669,-0.39762 -5.67333,-0.24496 -8.52136,-0.26735 -3.22683,-0.004 -6.45366,-0.0107 -9.68049,-0.0186 -3.67319,-0.005 -7.34635,0.0106 -11.01954,0.004 -3.79164,-0.009 -7.58326,-0.007 -11.37491,-0.007 -3.62924,0.0115 -7.25845,0.0106 -10.88769,10e-4 -3.47214,0.002 -6.94425,0.0231 -10.4164,0.0114 -3.34651,-0.004 -6.69297,0.006 -10.03948,-0.002 -3.51455,-0.006 -7.02907,0.002 -10.54361,-0.007 -3.50997,-0.004 -7.01988,0.0135 -10.52984,0.0134 -3.28397,-0.005 -6.56798,-0.0152 -9.85194,-0.002 -3.1604,-0.006 -6.32085,-0.0194 -9.48124,-0.004 -2.9025,0.0288 -5.81166,0.0593 -8.70119,0.3627 -2.669639,0.33372 -5.297101,1.00768 -7.993486,1.06802 -3.147348,-0.002 -6.29461,0.01 -9.441947,0.0104 -2.856413,1e-5 -5.712826,7e-5 -8.569239,-5e-4 -2.942661,-8e-4 -5.885322,-0.002 -8.827981,-0.006 -3.250003,-0.004 -6.500065,-0.0131 -9.75003,0.007 -2.856115,0.001 -5.71223,0.003 -8.56834,0.008 -2.852485,0.005 -5.705101,0.0175 -8.557499,-0.0114 -2.908324,-0.0485 -5.824715,-0.12644 -8.704881,-0.57128 -3.391736,-0.56558 -6.720559,-1.48918 -10.156197,-1.77498 -4.367901,-0.48491 -8.731514,-0.6678 -13.1235379,-0.34635 -4.5058344,0.21875 -9.0087281,0.56205 -13.4762082,1.2043 0,0 16.9971831,-12.67508 16.9971831,-12.67508 z"
       inkscape:connector-curvature="0" />
    <text
       xml:space="preserve"
       style="font-style:normal;font-weight:normal;font-size:40px;line-height:1.25;font-family:sans-serif;letter-spacing:0px;word-spacing:0px;fill:#000000;fill-opacity:1;stroke:none"
       x="54.285713"
       y="402.85715"
       id="text5332"><tspan
         sodipodi:role="line"
         id="tspan5330"
         x="54.285713"
         y="402.85715">Cloud</tspan><tspan
         sodipodi:role="line"
         x="54.285713"
         y="452.85715"
         id="tspan5334" /></text>
    <path
       style="fill:#ff9955;stroke:#000000;stroke-width:1px;stroke-linecap:butt;stroke-linejoin:miter;stroke-opacity:1"
       d="M 320.85715,265.71429 H 0.85714293"
       id="path5336"
       inkscape:connector-curvature="0" />
    <path
       style="fill:#d45500;stroke:#000000;stroke-width:1px;stroke-linecap:butt;stroke-linejoin:miter;stroke-opacity:1"
       d="M 0.85714293,360 C 320.85715,360 320.85715,360 320.85715,360"
       id="path5338"
       inkscape:connector-curvature="0" />
  </g>
</svg>
